<svg width="745" height="652" viewBox="0 0 745 652" fill="none" xmlns="http://www.w3.org/2000/svg">
<path d="M366.319 0L354.426 308.299C354.426 308.299 353.177 348.511 354.426 350.078C355.676 351.644 360.093 418.568 360.093 418.568H383.218L371.885 1.36702L368.547 0" fill="url(#paint0_linear_54681_23541)"/>
<path d="M1.59899 652L273.377 508.612C273.377 508.612 308.675 489.654 309.405 487.788C310.134 485.922 365.609 448.753 365.609 448.753L354.016 428.766L0 646.512L0.489691 650.074" fill="url(#paint1_linear_54681_23541)"/>
<path d="M745 644.047L486.153 478.517C486.153 478.517 452.244 457.184 450.256 457.473C448.267 457.762 388.545 427.857 388.545 427.857L376.832 447.774L741.002 648.158L743.87 645.972" fill="url(#paint2_linear_54681_23541)"/>
<path d="M371.886 451.866C382.406 451.866 390.934 443.351 390.934 432.848C390.934 422.344 382.406 413.829 371.886 413.829C361.366 413.829 352.838 422.344 352.838 432.848C352.838 443.351 361.366 451.866 371.886 451.866Z" fill="url(#paint3_linear_54681_23541)"/>
<path d="M371.885 444.919C378.564 444.919 383.978 439.514 383.978 432.846C383.978 426.178 378.564 420.772 371.885 420.772C365.207 420.772 359.793 426.178 359.793 432.846C359.793 439.514 365.207 444.919 371.885 444.919Z" fill="url(#paint4_linear_54681_23541)" stroke="#3E464F" stroke-miterlimit="10"/>
<path d="M371.885 436.268C373.778 436.268 375.313 434.736 375.313 432.846C375.313 430.956 373.778 429.423 371.885 429.423C369.992 429.423 368.457 430.956 368.457 432.846C368.457 434.736 369.992 436.268 371.885 436.268Z" fill="#3E464F" stroke="url(#paint5_linear_54681_23541)" stroke-miterlimit="10"/>
<defs>
<linearGradient id="paint0_linear_54681_23541" x1="353.867" y1="209.284" x2="383.218" y2="209.284" gradientUnits="userSpaceOnUse">
<stop stop-color="#BCC5CA"/>
<stop offset="0.56" stop-color="#E1E7EA"/>
<stop offset="1" stop-color="#C0C8CE"/>
</linearGradient>
<linearGradient id="paint1_linear_54681_23541" x1="188.319" y1="558.413" x2="173.647" y2="533.031" gradientUnits="userSpaceOnUse">
<stop stop-color="#BCC5CA"/>
<stop offset="0.56" stop-color="#E1E7EA"/>
<stop offset="1" stop-color="#C0C8CE"/>
</linearGradient>
<linearGradient id="paint2_linear_54681_23541" x1="571.512" y1="528" x2="556.684" y2="553.292" gradientUnits="userSpaceOnUse">
<stop stop-color="#BCC5CA"/>
<stop offset="0.56" stop-color="#E1E7EA"/>
<stop offset="1" stop-color="#C0C8CE"/>
</linearGradient>
<linearGradient id="paint3_linear_54681_23541" x1="352.838" y1="432.848" x2="390.934" y2="432.848" gradientUnits="userSpaceOnUse">
<stop stop-color="#BCC5CA"/>
<stop offset="0.56" stop-color="#E1E7EA"/>
<stop offset="1" stop-color="#C0C8CE"/>
</linearGradient>
<linearGradient id="paint4_linear_54681_23541" x1="359.793" y1="432.846" x2="383.968" y2="432.846" gradientUnits="userSpaceOnUse">
<stop stop-color="#BCC5CA"/>
<stop offset="0.56" stop-color="#E1E7EA"/>
<stop offset="1" stop-color="#C0C8CE"/>
</linearGradient>
<linearGradient id="paint5_linear_54681_23541" x1="367.947" y1="432.846" x2="375.812" y2="432.846" gradientUnits="userSpaceOnUse">
<stop stop-color="#BCC5CA"/>
<stop offset="1" stop-color="#C0C8CE"/>
</linearGradient>
</defs>
</svg>
